<?xml version="1.0" standalone="no"?>
<!DOCTYPE svg PUBLIC "-//W3C//DTD SVG 20010904//EN"
 "http://www.w3.org/TR/2001/REC-SVG-20010904/DTD/svg10.dtd">
<svg version="1.0" xmlns="http://www.w3.org/2000/svg"
 width="540.000000pt" height="540.000000pt" viewBox="0 0 540.000000 540.000000"
 preserveAspectRatio="xMidYMid meet">
<metadata>
Created by potrace 1.14, written by Peter Selinger 2001-2017
</metadata>
<g transform="translate(0.000000,540.000000) scale(0.100000,-0.100000)"
fill="#000000" stroke="none">
<path d="M2630 4934 c-19 -8 -41 -16 -50 -18 -8 -1 -32 -10 -52 -18 -45 -20
-484 -169 -491 -167 -1 1 -20 -6 -42 -14 -48 -18 -153 -51 -215 -68 -25 -7
-49 -14 -55 -15 -42 -13 -384 -105 -400 -108 -11 -3 -51 -12 -90 -21 -38 -9
-77 -18 -85 -20 -8 -2 -58 -13 -110 -25 -52 -12 -108 -23 -125 -26 -16 -2 -41
-6 -55 -9 -14 -3 -41 -8 -60 -11 -19 -4 -44 -9 -55 -11 -11 -3 -27 -5 -37 -5
-10 1 -18 -11 -22 -31 -3 -18 -8 -43 -11 -57 -8 -40 -24 -141 -31 -195 -3 -27
-7 -61 -9 -75 -23 -159 -22 -648 0 -807 3 -18 7 -49 10 -68 3 -19 7 -50 9 -67
13 -97 20 -139 33 -198 7 -36 16 -76 19 -90 29 -140 135 -470 179 -558 9 -18
18 -38 19 -45 1 -7 9 -23 19 -37 9 -13 17 -29 17 -35 0 -6 13 -35 29 -65 16
-30 41 -78 55 -106 15 -29 38 -68 51 -88 14 -20 25 -39 25 -41 0 -3 20 -34 45
-69 25 -36 45 -67 45 -70 0 -3 6 -14 14 -23 8 -10 48 -61 89 -114 41 -53 87
-111 103 -130 53 -62 322 -329 332 -329 6 0 12 -3 14 -8 10 -24 210 -176 363
-277 66 -43 132 -87 147 -97 15 -10 29 -18 32 -18 3 0 29 -14 58 -31 29 -18
114 -63 190 -101 l136 -69 64 26 c444 186 881 492 1172 821 103 116 146 169
193 238 24 33 50 70 59 81 8 11 27 40 42 65 14 25 30 47 34 48 4 2 8 10 8 17
0 8 6 20 13 27 19 20 126 226 171 328 46 107 111 277 121 320 2 8 12 42 23 76
19 57 85 330 97 404 7 36 8 48 20 139 4 30 9 63 11 75 6 29 17 163 18 213 1
24 3 43 6 43 3 0 5 114 4 252 -1 225 -6 333 -20 448 -2 19 -6 60 -9 90 -3 30
-7 64 -10 76 -3 12 -7 39 -11 60 -3 21 -7 40 -7 41 -1 1 -27 4 -57 7 -69 8
-119 14 -146 20 -12 2 -45 7 -75 11 -30 4 -57 9 -60 11 -4 2 -24 6 -44 10 -53
8 -63 10 -136 28 -35 8 -104 25 -154 36 -49 12 -137 35 -195 52 -58 16 -136
38 -175 49 -38 10 -78 24 -87 29 -10 6 -27 10 -38 10 -11 0 -28 4 -38 9 -9 5
-62 24 -117 41 -55 18 -109 36 -120 40 -11 5 -47 18 -80 30 -33 11 -67 23 -75
27 -8 3 -19 7 -25 9 -5 1 -41 15 -80 29 -38 15 -76 28 -83 29 -7 1 -18 8 -24
14 -7 7 -18 12 -26 12 -13 0 -100 33 -134 51 -23 12 -26 11 -68 -7z"/>
</g>
</svg>
